<svg xmlns="http://www.w3.org/2000/svg" viewBox="0 0 249.11 111.71"><title>Ativo 1</title><g id="Camada_2" data-name="Camada 2"><g id="Camada_1-2" data-name="Camada 1"><rect x="85.42" y="0.08" width="76.35" height="16.16"/><circle cx="37.21" cy="37.21" r="37.21"/><polygon points="210.86 0.17 173.16 74.98 249.11 74.7 210.86 0.17"/><rect x="85.42" y="58.05" width="76.35" height="16.16"/><rect x="85.42" y="29.07" width="76.35" height="16.16"/><path d="M48.59,102.12H40.06v9.41H36.79V90h3.27v9.24h8.53V90h3.26v21.55H48.59Z"/><path d="M69.77,90h3.09v3.09H69.77Zm0,6.21h3.09v15.34H69.77Z"/><path d="M90.78,90H94v18.46h10.5v3.09H90.78Z"/><path d="M121,90h3.09v3.09H121Zm0,6.21h3.09v15.34H121Z"/><path d="M139.53,96.19h3.27l3.6,10.74h.06l3.6-10.74h3.28l-5.63,15.34h-2.55Z"/><path d="M170.86,105a3.59,3.59,0,0,0,1.06,2.81,3.55,3.55,0,0,0,2.6,1,4.64,4.64,0,0,0,3.36-1.49l2.23,1.9a7.23,7.23,0,0,1-5.53,2.49,7.81,7.81,0,0,1-2.36-.36,8.37,8.37,0,0,1-2.21-1.21,6.16,6.16,0,0,1-1.58-2.39,9.55,9.55,0,0,1-.66-3.85,10.82,10.82,0,0,1,.57-3.78,6.69,6.69,0,0,1,1.48-2.42,5.45,5.45,0,0,1,2.06-1.3,6.42,6.42,0,0,1,2.21-.4,6.18,6.18,0,0,1,6.33,6.49V105Zm6.47-2.54a3.9,3.9,0,0,0-1-2.71,3.41,3.41,0,0,0-4.55,0,4,4,0,0,0-1,2.71Z"/><path d="M202.52,108.81a4,4,0,0,0,2.17-.52,1.6,1.6,0,0,0,.84-1.44,1.26,1.26,0,0,0-.5-1.16,2.68,2.68,0,0,0-1.37-.37l-2.72-.23a5.19,5.19,0,0,1-3.15-1.3,3.94,3.94,0,0,1-1.27-3.06,4.17,4.17,0,0,1,1.67-3.55A6.59,6.59,0,0,1,202.24,96a12.29,12.29,0,0,1,1.91.13,10.74,10.74,0,0,1,1.58.41,9.29,9.29,0,0,1,2.54,1.56l-1.91,2.23a10.15,10.15,0,0,0-1.87-1,6.28,6.28,0,0,0-2.25-.37,3,3,0,0,0-2,.52,1.67,1.67,0,0,0-.6,1.33,1,1,0,0,0,.46.9,2.66,2.66,0,0,0,1.56.55l2.54.19a4.75,4.75,0,0,1,3.46,1.45,4.86,4.86,0,0,1,1,3.14,4,4,0,0,1-1.81,3.45,8,8,0,0,1-4.54,1.27,9.77,9.77,0,0,1-6.76-2.75l2.16-2.11A6.4,6.4,0,0,0,202.52,108.81Z"/></g></g></svg>